<?xml version="1.0" encoding="UTF-8" standalone="no"?>
<!DOCTYPE svg PUBLIC "-//W3C//DTD SVG 1.1//EN" "http://www.w3.org/Graphics/SVG/1.1/DTD/svg11.dtd">
<svg width="100%" height="100%" viewBox="0 950 4700 1600" version="1.1" xmlns="http://www.w3.org/2000/svg" xmlns:xlink="http://www.w3.org/1999/xlink" xml:space="preserve" xmlns:serif="http://www.serif.com/" style="fill-rule:evenodd;clip-rule:evenodd;stroke-linecap:round;stroke-linejoin:round;stroke-miterlimit:1.5;">
    <g id="horizontal">
        <g id="vector" transform="matrix(1.003508,0,0,1.003508,238.761861,1040.565568)">
            <path d="M643.694,820.312C643.694,820.312 641.675,820.819 638.966,821.499C636.052,822.231 632.969,821.37 630.855,819.234C628.742,817.099 627.913,814.007 628.676,811.101C628.751,810.814 628.793,810.653 628.793,810.653C628.793,810.653 635.518,794.761 640.659,787.336C648.316,776.275 660.579,766.413 672.669,758.775C685.408,750.727 701.742,744.223 717.096,739.045C734.757,733.089 757.846,727.18 778.632,723.04C803.771,718.033 871.132,713.296 882.427,712.525C883.364,712.462 884.116,711.725 884.197,710.789C884.56,706.379 885.327,694.041 883.217,686.753C873.183,652.106 850.825,618.315 773.875,584.869C773.875,584.869 679.929,548.846 564.247,586.66C564.247,586.66 483.276,612.778 456.224,685.886C453.933,692.077 446.211,692.093 440.471,683.173C440.471,683.173 280.253,447.637 248.667,397.807C248.666,397.805 248.665,397.804 248.664,397.802C246.115,393.778 246.633,388.535 249.921,385.088C253.208,381.641 258.421,380.876 262.561,383.232C263.072,383.51 263.489,383.741 263.79,383.915C298.7,404.09 460.419,505.241 460.419,505.241C460.419,505.241 468.87,509.645 470.557,510.466C480.689,515.401 511.475,527.221 551.394,505.044C551.394,505.044 598.606,479.605 603.996,444.034C603.996,444.034 646.412,105.183 657.496,34.752C657.976,31.704 661.199,27.575 664.315,24.197C665.906,22.462 668.15,21.472 670.504,21.465C672.858,21.459 675.107,22.437 676.707,24.164C679.893,27.585 683.213,31.791 683.706,34.903C694.708,104.29 736.513,437.774 736.513,437.774C736.513,437.774 738.851,489.353 797.489,508.755C797.489,508.755 843.624,529.882 904.634,490.862C904.634,490.862 1044.548,402.58 1075.592,385.226C1075.594,385.225 1075.595,385.224 1075.596,385.224C1079.972,382.778 1085.423,383.416 1089.115,386.807C1092.807,390.198 1093.906,395.575 1091.841,400.143C1091.813,400.202 1091.787,400.261 1091.761,400.317C1062.196,465.194 913.509,776 913.509,776C913.509,776 909.245,784.557 893.517,781.776C890.834,781.301 771.494,751.963 643.694,820.312Z" style="fill:rgb(245,158,11);stroke:rgb(245,158,11);stroke-width:2.26px;"/>
            <path d="M47.14,789.259L411.834,780.536C411.834,780.536 430.646,778.028 427.714,794.239C427.714,794.239 416.035,887.845 517.667,964.993C518.282,965.46 518.875,965.955 519.444,966.477C528.849,974.559 587.985,1020.118 711.084,1011.513C711.084,1011.513 774.27,1012.318 835.24,961.454C835.24,961.454 892.841,904.526 906.315,847.936C906.315,847.936 907.089,842.912 911.239,843.001L1280.427,852.513C1280.427,852.513 1321.172,854.453 1317.723,868.681C1317.723,868.681 1320.741,883.772 1281.074,894.336L1040.379,941.555C1040.379,941.555 989.454,951.056 979.753,985.01C979.753,985.01 969.149,1013.05 986.328,1048.756L1079.299,1212.801C1079.299,1212.801 1083.539,1220.516 1078.158,1225.897C1078.158,1225.897 1072.374,1231.349 1060.084,1225.759L836.433,1129.371C836.433,1129.371 802.765,1114.812 773.923,1157.605C770.037,1163.294 767.249,1169.66 765.706,1176.375C753.842,1227.666 689.588,1507.169 689.588,1507.169C689.588,1507.169 686.737,1516.486 681.507,1523.741C678.997,1527.173 675.008,1529.21 670.756,1529.232C666.505,1529.253 662.495,1527.257 659.95,1523.851C656.932,1519.822 653.965,1513.857 652.114,1505.063L580.272,1185.897C580.272,1185.897 564.235,1126.995 517.782,1127.632C511.078,1127.722 504.457,1129.137 498.301,1131.793C467.337,1145.14 301.34,1216.771 280.896,1225.593C278.476,1226.637 275.895,1227.261 273.265,1227.435C268.126,1227.774 261.192,1226.661 260.561,1218.349C260.318,1215.125 261.056,1211.904 262.678,1209.108C274.9,1188.038 356.315,1047.692 361.519,1038.72C361.7,1038.409 361.869,1038.092 362.026,1037.769C365.704,1029.856 409.055,930.887 291.463,890.477C291.463,890.477 40.625,828.361 25.248,824.553C24.148,824.281 23.065,823.948 22.003,823.555C16.995,821.609 6.077,816.439 5.335,807.324C5.335,807.324 2.713,791.338 47.14,789.259Z" style="fill:rgb(245,158,11);stroke:rgb(245,158,11);stroke-width:2.26px;"/>
        </g>
        <g transform="matrix(0.71593,0,0,0.71593,217.993315,436.376675)">
            <g transform="matrix(1054.380914,0,0,1054.380914,6408.029718,2243.037471)">
            </g>
            <text x="1904.769px" y="2243.037px" style="font-family:'AmaregoPERSONALUSE-Regular', 'Amarego PERSONAL USE';font-size:1054.381px;fill:rgb(245,158,12);">elektra</text>
        </g>
    </g>
</svg>
