<?xml version="1.0" encoding="UTF-8" standalone="no"?>
<!DOCTYPE svg PUBLIC "-//W3C//DTD SVG 1.1//EN" "http://www.w3.org/Graphics/SVG/1.1/DTD/svg11.dtd">
<svg width="100%" height="100%" viewBox="0 0 1341 1548" version="1.1" xmlns="http://www.w3.org/2000/svg" xmlns:xlink="http://www.w3.org/1999/xlink" xml:space="preserve" xmlns:serif="http://www.serif.com/" style="fill-rule:evenodd;clip-rule:evenodd;stroke-linecap:round;stroke-linejoin:round;stroke-miterlimit:1.5;">
    <g id="vector">
        <path d="M643.694,820.312C643.694,820.312 641.692,820.814 638.998,821.491C636.078,822.224 632.987,821.361 630.869,819.221C628.751,817.081 627.92,813.981 628.684,811.068C628.754,810.802 628.793,810.653 628.793,810.653C628.793,810.653 635.518,794.761 640.659,787.336C648.316,776.275 660.579,766.413 672.669,758.775C685.408,750.727 701.742,744.223 717.096,739.045C734.757,733.089 757.846,727.18 778.632,723.04C803.767,718.034 871.109,713.298 882.421,712.526C883.362,712.462 884.116,711.722 884.198,710.783C884.56,706.368 885.326,694.038 883.217,686.753C873.183,652.106 850.825,618.315 773.875,584.869C773.875,584.869 679.929,548.846 564.247,586.66C564.247,586.66 483.276,612.778 456.224,685.886C453.933,692.077 446.211,692.093 440.471,683.173C440.471,683.173 280.253,447.637 248.667,397.807C248.666,397.806 248.666,397.805 248.665,397.804C246.116,393.78 246.633,388.537 249.921,385.089C253.209,381.642 258.422,380.876 262.562,383.233C263.073,383.511 263.489,383.741 263.79,383.915C298.7,404.09 460.419,505.241 460.419,505.241C460.419,505.241 468.87,509.645 470.557,510.466C480.689,515.401 511.475,527.221 551.394,505.044C551.394,505.044 598.606,479.605 603.996,444.034C603.996,444.034 646.412,105.183 657.496,34.752C657.975,31.712 661.181,27.598 664.29,24.224C665.887,22.481 668.14,21.485 670.504,21.479C672.868,21.473 675.126,22.456 676.732,24.191C679.911,27.607 683.214,31.799 683.706,34.903C694.708,104.29 736.513,437.774 736.513,437.774C736.513,437.774 738.851,489.353 797.489,508.755C797.489,508.755 843.624,529.882 904.634,490.862C904.634,490.862 1044.548,402.58 1075.592,385.226C1075.593,385.226 1075.593,385.226 1075.593,385.225C1079.969,382.779 1085.421,383.417 1089.114,386.808C1092.806,390.199 1093.906,395.577 1091.84,400.145C1091.812,400.204 1091.786,400.261 1091.761,400.317C1062.196,465.194 913.509,776 913.509,776C913.509,776 909.245,784.557 893.517,781.776C890.834,781.301 771.494,751.963 643.694,820.312Z" style="fill:rgb(245,158,12);stroke:rgb(245,158,12);stroke-width:1px;"/>
        <path d="M47.14,789.259L411.834,780.536C411.834,780.536 430.646,778.028 427.714,794.239C427.714,794.239 416.035,887.845 517.668,964.993C518.284,965.461 518.878,965.957 519.448,966.48C528.866,974.571 588.001,1020.116 711.084,1011.513C711.084,1011.513 774.27,1012.318 835.24,961.454C835.24,961.454 892.841,904.526 906.315,847.936C906.315,847.936 907.089,842.912 911.239,843.001L1280.427,852.513C1280.427,852.513 1321.172,854.453 1317.723,868.681C1317.723,868.681 1320.741,883.772 1281.074,894.336L1040.379,941.555C1040.379,941.555 989.454,951.056 979.753,985.01C979.753,985.01 969.149,1013.05 986.328,1048.756L1079.299,1212.801C1079.299,1212.801 1083.539,1220.516 1078.158,1225.897C1078.158,1225.897 1072.374,1231.349 1060.084,1225.759L836.433,1129.371C836.433,1129.371 802.8,1114.828 773.968,1157.539C770.055,1163.256 767.25,1169.658 765.697,1176.41C753.812,1227.793 689.588,1507.169 689.588,1507.169C689.588,1507.169 686.756,1516.423 681.559,1523.668C679.039,1527.127 675.023,1529.181 670.743,1529.198C666.463,1529.215 662.43,1527.195 659.882,1523.756C656.886,1519.73 653.951,1513.788 652.114,1505.063L580.272,1185.897C580.272,1185.897 565.783,1132.68 524.456,1127.96C515.56,1126.926 506.548,1128.25 498.325,1131.798C467.414,1145.107 301.447,1216.725 280.916,1225.585C278.475,1226.638 275.871,1227.265 273.218,1227.436C268.024,1227.771 261.033,1226.609 260.542,1218.062C260.366,1214.929 261.112,1211.813 262.686,1209.098C274.928,1187.991 356.306,1047.707 361.518,1038.721C361.7,1038.409 361.869,1038.091 362.027,1037.767C365.713,1029.837 409.044,930.883 291.463,890.477C291.463,890.477 40.706,828.381 25.255,824.555C24.144,824.28 23.05,823.943 21.977,823.545C16.958,821.592 6.075,816.424 5.335,807.324C5.335,807.324 2.713,791.338 47.14,789.259Z" style="fill:rgb(245,158,12);stroke:rgb(245,158,12);stroke-width:1px;"/>
    </g>
</svg>
